<?xml version="1.0" encoding="iso-8859-1"?>
<!-- Generator: Adobe Illustrator 19.0.0, SVG Export Plug-In . SVG Version: 6.00 Build 0)  -->
<svg version="1.1" id="Capa_1" xmlns="http://www.w3.org/2000/svg" xmlns:xlink="http://www.w3.org/1999/xlink" x="0px" y="0px"
	 viewBox="0 0 512 512" style="enable-background:new 0 0 512 512;" xml:space="preserve">
<path style="fill:#FF9FAF;" d="M409.218,306.37c-50.883-4.785-102.051-7.177-153.218-7.177s-102.335,2.392-153.218,7.177
	l-92.869,8.732c-0.006,5.402,1.765,10.805,5.314,15.656c6.577,8.988,12.186,24.681,12.186,34.994v2.03
	c0,15.315,9.915,29.413,25.929,38.515c9.859,5.604,16.107,14.362,16.76,23.989c1.052,15.528,17.179,27.895,37.396,27.895h0.216
	c14.129,0.945,26.65,7.38,33.193,17.057c9.289,13.74,30.072,20.361,49.273,15.697l0,0c13.524-3.285,28.293-1.026,39.154,5.99l0,0
	c7.709,4.98,17.188,7.469,26.666,7.469c9.479,0,18.957-2.489,26.666-7.469l0,0c10.86-7.016,25.629-9.275,39.154-5.99l0,0
	c19.201,4.664,39.984-1.957,49.273-15.697c6.543-9.678,19.064-16.112,33.193-17.057h0.216c20.218,0,36.344-12.367,37.396-27.895
	c0.652-9.627,6.901-18.385,16.76-23.989c16.014-9.102,25.929-23.201,25.929-38.515v-2.03c0-10.313,5.608-26.007,12.186-34.994
	c3.549-4.85,5.32-10.253,5.314-15.656L409.218,306.37z"/>
<path style="fill:#FD747F;" d="M256,462.67c109.005,0,198.122-66.965,204.586-151.47l-51.368-4.83
	c-50.883-4.785-102.051-7.177-153.218-7.177s-102.335,2.392-153.218,7.177l-51.368,4.83C57.878,395.705,146.995,462.67,256,462.67z"
	/>
<path style="fill:#ED6E7D;" d="M460.587,311.2l-51.368-4.83c-50.883-4.785-102.051-7.177-153.218-7.177V462.67
	C365.006,462.67,454.122,395.705,460.587,311.2z"/>
<path style="fill:#FF9FAF;" d="M391.615,105.46l-30.376-44.426c-1.866-2.729-5.891-2.785-7.799-0.085
	C344.354,73.8,317,103.014,256,103.157c-61-0.143-88.354-29.357-97.439-42.209c-1.908-2.699-5.933-2.643-7.799,0.085l-30.377,44.426
	c38.324,161.854,27.698,219.03,24.27,236.305c-0.571,1.265-0.869,2.553-0.869,3.861c0,17.083,50.24,30.931,112.214,30.931
	s112.214-13.848,112.214-30.931c0-1.307-0.297-2.596-0.869-3.861C363.917,324.49,353.29,267.313,391.615,105.46z"/>
<path style="fill:#F48799;" d="M367.157,340.813c-0.006-0.032-0.013-0.066-0.019-0.098c-0.058-0.296-0.118-0.603-0.178-0.921
	c-0.011-0.055-0.022-0.113-0.032-0.169c-0.061-0.319-0.123-0.647-0.186-0.987c-0.007-0.036-0.013-0.073-0.02-0.109
	c-0.07-0.376-0.14-0.763-0.212-1.165c-0.001-0.008-0.003-0.016-0.004-0.024c-0.302-1.697-0.621-3.627-0.935-5.814l0,0
	c-3.706-25.829-6.723-87.685,26.044-226.067l-30.376-44.426c-1.866-2.729-5.891-2.785-7.799-0.085
	c-4.268,6.037-12.571,15.686-26.497,24.235l13.864,20.276c-38.324,161.854-27.698,219.03-24.27,236.305
	c0.571,1.265,0.869,2.553,0.869,3.861c0,0.018,0,0.037,0,0.055c-0.019,2.999-2.361,5.475-5.322,5.947
	c-16.499,2.63-35.651,4.137-56.083,4.137c-53.635,0-98.473-10.373-109.571-24.238c-0.629,4.381-1.277,7.733-1.774,10.238
	c-0.571,1.265-0.869,2.553-0.869,3.861c0,15.262,40.099,27.94,92.838,30.471c0.136,0.007,0.273,0.012,0.409,0.019
	c1.904,0.089,3.824,0.165,5.759,0.228c0.196,0.006,0.393,0.013,0.589,0.019c1.923,0.059,3.861,0.105,5.812,0.138
	c0.164,0.003,0.328,0.006,0.492,0.009c2.091,0.032,4.195,0.05,6.315,0.05c61.974,0,112.214-13.849,112.214-30.931
	c0-1.307-0.298-2.596-0.869-3.861C367.284,341.46,367.222,341.143,367.157,340.813z"/>
<path style="fill:#FD747F;" d="M361.238,61.034c-1.866-2.729-5.891-2.785-7.799-0.085C344.354,73.8,317,103.014,256,103.157
	c-61-0.143-88.354-29.357-97.439-42.209c-1.908-2.699-5.933-2.643-7.799,0.085l-30.377,44.426
	c3.309,13.974,6.245,27.149,8.86,39.604l0.006,0.006l28.918-42.757c17.772,13.755,49.142,30.143,97.762,30.258H256h0.069
	c48.621-0.115,79.99-16.503,97.762-30.258l28.918,42.757l0.006-0.006c2.615-12.455,5.551-25.63,8.86-39.604L361.238,61.034z"/>
<path style="fill:#ED6E7D;" d="M381.489,90.651l-20.251-29.617c-0.933-1.364-2.406-2.061-3.884-2.078
	c-1.478-0.018-2.961,0.643-3.915,1.993c-0.276,0.39-0.57,0.797-0.88,1.216c-0.093,0.126-0.198,0.261-0.294,0.39
	c-0.222,0.296-0.444,0.592-0.683,0.9c-0.137,0.177-0.286,0.363-0.429,0.544c-0.215,0.273-0.428,0.544-0.656,0.825
	c-0.166,0.205-0.344,0.417-0.517,0.626c-0.221,0.266-0.44,0.531-0.672,0.804c-0.195,0.23-0.401,0.464-0.604,0.698
	c-0.229,0.263-0.457,0.526-0.697,0.794c-0.22,0.246-0.449,0.496-0.678,0.747c-0.242,0.265-0.485,0.529-0.737,0.798
	c-0.245,0.261-0.497,0.524-0.752,0.788c-0.255,0.265-0.511,0.53-0.776,0.798c-0.27,0.274-0.547,0.549-0.828,0.826
	c-0.268,0.265-0.54,0.53-0.818,0.797c-0.296,0.285-0.596,0.57-0.903,0.857c-0.282,0.264-0.57,0.529-0.862,0.795
	c-0.322,0.294-0.647,0.587-0.98,0.883c-0.296,0.263-0.6,0.526-0.906,0.79c-0.348,0.301-0.698,0.601-1.058,0.903
	c-0.312,0.262-0.634,0.524-0.956,0.786c-0.374,0.305-0.747,0.61-1.133,0.915c-0.33,0.261-0.671,0.521-1.01,0.782
	c-0.4,0.307-0.796,0.615-1.209,0.922c-0.348,0.259-0.709,0.517-1.066,0.776c-0.425,0.308-0.845,0.616-1.283,0.922
	c-0.365,0.255-0.745,0.509-1.119,0.763c-0.453,0.308-0.9,0.617-1.367,0.924c-0.376,0.247-0.771,0.491-1.156,0.737
	c-0.487,0.31-0.964,0.622-1.465,0.929l-0.001,0.001l13.864,20.276c-0.525,2.217-1.037,4.406-1.544,6.584
	c5.611-3.229,10.459-6.55,14.569-9.732l28.918,42.757l0.004-0.004c1.296-6.171,2.671-12.52,4.133-19.059
	c0.017-0.074,0.033-0.148,0.049-0.222c0.279-1.249,0.563-2.508,0.849-3.77c0.159-0.704,0.319-1.408,0.48-2.116
	c0.232-1.02,0.466-2.042,0.702-3.07c0.244-1.065,0.492-2.137,0.741-3.211c0.181-0.782,0.361-1.561,0.544-2.348
	c0.435-1.865,0.875-3.741,1.323-5.635c0.014-0.058,0.027-0.115,0.041-0.174L381.489,90.651z"/>
<path d="M121.801,146.627c0.012,0.055,0.033,0.107,0.046,0.162c18.251,86.776,23.467,151.508,15.491,192.763
	c-0.059,0.152-0.101,0.307-0.155,0.46c-0.076,0.213-0.149,0.426-0.216,0.641c-0.107,0.339-0.199,0.68-0.283,1.023
	c-0.052,0.209-0.106,0.417-0.15,0.626c-0.077,0.372-0.134,0.745-0.185,1.119c-0.025,0.18-0.058,0.358-0.077,0.539
	c-0.057,0.554-0.091,1.109-0.091,1.665c0,26.479,62.111,38.539,119.82,38.539c57.71,0,119.821-12.06,119.821-38.539
	c0-0.044-0.007-0.089-0.007-0.133c-0.004-0.509-0.032-1.017-0.083-1.523c-0.02-0.194-0.056-0.387-0.083-0.581
	c-0.05-0.36-0.104-0.72-0.178-1.078c-0.045-0.217-0.102-0.433-0.155-0.65c-0.083-0.334-0.173-0.667-0.277-0.998
	c-0.07-0.222-0.145-0.442-0.224-0.663c-0.053-0.149-0.094-0.299-0.151-0.448c-7.976-41.257-2.759-105.99,15.492-192.768
	c0.012-0.053,0.034-0.104,0.045-0.157c2.678-12.757,5.645-26.018,8.817-39.414c0.123-0.521,0.19-1.049,0.203-1.576
	c0.018-0.79-0.086-1.576-0.309-2.331c-0.223-0.755-0.563-1.478-1.016-2.141L367.518,56.74c0,0,0,0-0.001,0
	c-0.777-1.137-1.731-2.115-2.807-2.919h0.001V7.607c0-4.201-3.405-7.607-7.607-7.607s-7.607,3.406-7.607,7.607V54.15
	c0.264-0.217,0.537-0.423,0.817-0.617c-0.738,0.508-1.428,1.091-2.045,1.755c-0.033,0.035-0.071,0.065-0.103,0.101
	c-0.236,0.261-0.45,0.545-0.665,0.827c-0.089,0.116-0.189,0.221-0.274,0.341c-1.284,1.817-2.985,4.009-5.155,6.415
	c-11.787,13.065-37.469,32.463-86.054,32.578c-53.972-0.127-79.686-24.022-89.493-36.632c-0.654-0.841-1.237-1.631-1.753-2.361
	c-0.65-0.92-1.425-1.721-2.277-2.418V7.607c0-4.201-3.406-7.607-7.607-7.607c-4.201,0-7.607,3.406-7.607,7.607v46.235l0,0
	c-1.069,0.802-2.025,1.767-2.799,2.898l-30.377,44.426c-0.907,1.326-1.363,2.892-1.326,4.471c0.012,0.526,0.079,1.054,0.203,1.575
	C116.155,120.607,119.122,133.868,121.801,146.627z M356.224,277.476c-1.783,38.345,2.031,57.563,3.66,65.77
	c0.004,0.021,0.012,0.042,0.016,0.064c0.044,0.21,0.1,0.42,0.162,0.628c0.018,0.059,0.031,0.12,0.05,0.179
	c0.086,0.262,0.184,0.523,0.3,0.781c0.059,0.13,0.101,0.25,0.133,0.362c0.006,0.022,0.012,0.043,0.017,0.063
	c0.026,0.107,0.043,0.206,0.044,0.294c0,0.002,0,0.007,0,0.009c0,2.29-6.669,8.857-27.281,14.539
	c-15.416,4.249-34.716,7.067-55.768,8.21c-7.017,0.381-14.229,0.576-21.557,0.576c-3.664,0-7.299-0.049-10.895-0.145
	c-25.172-0.675-48.445-3.684-66.431-8.641c-20.613-5.682-27.281-12.249-27.281-14.539c0-0.198,0.065-0.443,0.195-0.728
	c0.009-0.02,0.015-0.041,0.024-0.061c0.104-0.236,0.196-0.475,0.275-0.715c0.022-0.067,0.037-0.135,0.057-0.203
	c0.06-0.201,0.114-0.402,0.156-0.605c0.005-0.023,0.013-0.045,0.018-0.068c1.628-8.207,5.442-27.424,3.659-65.77
	c-1.677-36.08-7.864-79.95-18.423-130.808l22.714-33.584c19.451,13.235,50.548,26.986,95.847,27.093c0.012,0,0.162,0,0.174,0
	c45.298-0.107,76.395-13.858,95.847-27.093l22.714,33.585C364.088,197.526,357.901,241.396,356.224,277.476z M139.213,91.402
	l15.58-22.786c5.741,7.313,15.041,16.678,29.241,24.804c6.248,3.576,12.908,6.605,19.959,9.08
	c15.513,5.447,32.924,8.219,52.025,8.264c53.79-0.127,83.134-22.055,97.02-37.26c1.581-1.731,2.973-3.379,4.166-4.893l26.237,38.371
	c-0.702,2.99-1.386,5.952-2.062,8.901c-0.097,0.425-0.194,0.849-0.291,1.273c-0.682,2.989-1.355,5.962-2.01,8.908l-18.945-28.012
	c-1.178-1.741-3.023-2.917-5.099-3.25c-2.075-0.332-4.196,0.208-5.859,1.496c-16.818,13.017-46.627,28.557-93.124,28.667h-0.103
	c-46.497-0.11-76.306-15.65-93.124-28.667c-1.342-1.039-2.982-1.591-4.656-1.591c-0.4,0-0.802,0.032-1.202,0.096
	c-2.076,0.332-3.921,1.508-5.098,3.25l-18.945,28.011c-0.661-2.974-1.341-5.977-2.03-8.994c-0.083-0.364-0.166-0.727-0.25-1.091
	c-0.683-2.98-1.374-5.973-2.083-8.995L139.213,91.402z"/>
<path d="M502.799,307.529l-92.869-8.732c-3.678-0.346-7.357-0.679-11.038-1c-4.181-0.362-7.873,2.732-8.239,6.917
	c-0.365,4.185,2.732,7.874,6.917,8.239c3.647,0.318,7.291,0.648,10.935,0.991l43.695,4.108
	c-10.743,77.412-95.139,137.011-196.2,137.011S70.542,395.464,59.799,318.052l43.694-4.108c3.405-0.32,6.811-0.629,10.219-0.929
	c4.185-0.367,7.28-4.057,6.913-8.242s-4.066-7.28-8.242-6.913c-3.439,0.301-6.877,0.614-10.314,0.936L9.2,307.528
	c-3.905,0.367-6.89,3.643-6.895,7.565c-0.008,7.112,2.338,14.081,6.783,20.157c5.709,7.802,10.717,22.055,10.717,30.502v2.029
	c0,17.66,11.131,34.53,29.776,45.128c7.744,4.403,12.457,10.923,12.93,17.891c1.329,19.605,21.062,34.966,44.936,34.987
	c11.608,0.839,21.997,6.079,27.156,13.711c11.024,16.308,35.152,24.224,57.37,18.829c11.436-2.777,24.168-0.866,33.231,4.988
	c8.673,5.6,19.609,8.685,30.796,8.685c11.186,0,22.122-3.085,30.794-8.686c9.063-5.853,21.8-7.765,33.231-4.988
	c22.219,5.397,46.346-2.521,57.37-18.828c5.16-7.632,15.548-12.872,27.157-13.711c23.873-0.021,43.606-15.381,44.936-34.987
	c0.472-6.968,5.185-13.489,12.93-17.89c18.646-10.598,29.777-27.468,29.777-45.128v-2.029c0-8.448,5.008-22.701,10.718-30.503
	c4.444-6.075,6.79-13.044,6.782-20.156C509.69,311.172,506.703,307.896,502.799,307.529z M490.634,326.265
	c-7.656,10.462-13.654,27.806-13.654,39.487v2.029c0,12.298-8.049,23.926-22.082,31.901c-12.262,6.97-19.767,17.936-20.59,30.088
	c-0.791,11.665-13.884,20.802-29.807,20.802h-0.216c-0.169,0-0.339,0.005-0.508,0.017c-16.529,1.106-31.104,8.728-38.986,20.387
	c-7.471,11.051-25.171,16.455-41.176,12.566c-15.59-3.788-32.439-1.173-45.077,6.992c-6.241,4.031-14.246,6.251-22.539,6.251
	c-8.294,0-16.298-2.22-22.539-6.251c-12.638-8.164-29.489-10.778-45.077-6.992c-16.003,3.888-33.705-1.514-41.176-12.566
	c-7.882-11.659-22.457-19.28-38.987-20.387c-0.169-0.011-0.338-0.017-0.508-0.017h-0.215c-15.923,0-29.016-9.138-29.807-20.802
	c-0.824-12.152-8.329-23.118-20.591-30.088c-14.032-7.976-22.081-19.603-22.081-31.901v-2.029c0-11.68-5.997-29.024-13.654-39.486
	c-1.023-1.398-1.849-2.863-2.47-4.368l25.747-2.421c5.388,40.266,28.621,77.398,66.071,105.251
	c39.494,29.373,91.09,45.549,145.286,45.549s105.792-16.176,145.286-45.549c37.45-27.853,60.684-64.985,66.072-105.251l25.747,2.421
	C492.483,323.403,491.656,324.868,490.634,326.265z"/>
<g>
</g>
<g>
</g>
<g>
</g>
<g>
</g>
<g>
</g>
<g>
</g>
<g>
</g>
<g>
</g>
<g>
</g>
<g>
</g>
<g>
</g>
<g>
</g>
<g>
</g>
<g>
</g>
<g>
</g>
</svg>
